<?xml version="1.0" encoding="UTF-8"?>
<svg version="1.1" xmlns="http://www.w3.org/2000/svg" width="297" height="279">
<path d="M0 0 C0.86448956 -0.00453111 1.72897911 -0.00906223 2.61966532 -0.01373065 C5.50981916 -0.02636776 8.3997844 -0.02475471 11.28996277 -0.02310181 C13.36489097 -0.02908748 15.43981694 -0.03589312 17.51473999 -0.04345703 C23.14705268 -0.06112023 28.7793046 -0.06581255 34.41164231 -0.0670886 C37.93180043 -0.06851058 41.45194311 -0.07278106 44.9720974 -0.07808304 C57.25644791 -0.09658437 69.54075503 -0.10475352 81.82511902 -0.10317993 C93.26995805 -0.10197851 104.7146085 -0.12308086 116.15939981 -0.15466726 C125.99058697 -0.18083191 135.82171254 -0.19154714 145.65293425 -0.19026911 C151.52235048 -0.18975954 157.39159911 -0.19544049 163.26098061 -0.21662521 C168.78255244 -0.2360106 174.30379684 -0.23612978 179.82538033 -0.22159195 C181.84859445 -0.21950315 183.87182909 -0.22420897 185.89500809 -0.23631287 C188.66386767 -0.25180123 191.43160323 -0.24243356 194.20043945 -0.22705078 C194.9950122 -0.23733791 195.78958495 -0.24762503 196.60823566 -0.25822389 C205.38122406 -0.15102254 212.17522101 3.51012092 218.50163269 9.40805054 C225.59493988 16.78013399 227.5937514 23.62290351 227.55812073 33.73600769 C227.56265184 34.68216829 227.56718295 35.6283289 227.57185137 36.60316104 C227.58449918 39.76970072 227.58287474 42.93606849 227.58122253 46.10263062 C227.58720753 48.37460043 227.59401302 50.64656822 227.60157776 52.91853333 C227.61924771 59.08801793 227.62393356 65.25744705 227.62520933 71.42695451 C227.62663091 75.2821315 227.63090064 79.13729439 227.63620377 82.99246788 C227.65375238 95.74974698 227.66304361 108.50697985 227.66154282 121.26426808 C227.66146291 121.95149412 227.66138299 122.63872017 227.66130066 123.34677124 C227.6612189 124.03484006 227.66113714 124.72290889 227.6610529 125.43182828 C227.66024018 136.58018297 227.67937571 147.72840249 227.70757739 158.87671808 C227.7363315 170.33416428 227.74975034 181.79151724 227.74838984 193.2490055 C227.74788007 199.67732938 227.75357189 206.10550028 227.77474594 212.5337925 C227.79411981 218.58065176 227.79425831 224.62721195 227.77971268 230.6740818 C227.77762246 232.89080238 227.78233811 235.10754163 227.79443359 237.32423019 C227.80990145 240.35580125 227.80056719 243.38634308 227.78517151 246.41789246 C227.79545864 247.29028417 227.80574576 248.16267588 227.81634462 249.06150371 C227.71579403 258.05184469 224.28054823 264.93948077 218.22819519 271.47445679 C211.77866179 277.4428758 205.95170019 279.41486409 197.25932312 279.42805481 C196.01755302 279.43568654 196.01755302 279.43568654 194.75069666 279.44347245 C191.96650515 279.45921424 189.18233962 279.46772666 186.39811707 279.47616577 C184.40569391 279.48570304 182.41327243 279.49559415 180.42085266 279.5058136 C173.86707021 279.53722034 167.313275 279.55747126 160.75944519 279.57601929 C159.64419527 279.57931661 158.52894535 279.58261393 157.37989998 279.58601117 C146.85972614 279.61679855 136.33954945 279.64350441 125.81934357 279.66042995 C112.36819608 279.68232488 98.91744837 279.72426626 85.4664607 279.79386753 C76.00643623 279.84115246 66.54651942 279.86536975 57.08638048 279.87262684 C51.43806001 279.87757724 45.79018995 279.89260003 40.14199829 279.93237114 C34.82309638 279.96932869 29.5049004 279.97761704 24.18589401 279.96436501 C22.2392888 279.96441881 20.2926516 279.97465466 18.3461647 279.99611664 C6.67338145 280.11788386 -2.52826034 279.81236877 -11.62291718 271.52332211 C-18.27224286 264.6797863 -20.83979288 255.77488754 -20.8228302 246.4793396 C-20.82297623 245.80575912 -20.82312225 245.13217865 -20.82327271 244.43818665 C-20.82257805 242.21977477 -20.81480662 240.00144768 -20.80696106 237.78305054 C-20.80509529 236.24177089 -20.80367214 234.70049065 -20.80267334 233.15921021 C-20.79886066 229.1084529 -20.78904105 225.05773162 -20.77796936 221.00698853 C-20.76772837 216.87114957 -20.76316996 212.73530478 -20.75813293 208.59945679 C-20.74741765 200.4887632 -20.73035624 192.37809885 -20.70930481 184.26742554 C-17.42724316 185.55094365 -14.44939934 186.89576331 -11.45930481 188.76742554 C-10.77352356 189.19023804 -10.08774231 189.61305054 -9.38117981 190.04867554 C-7.70930481 191.26742554 -7.70930481 191.26742554 -6.70930481 193.26742554 C-6.60992382 195.10405097 -6.57373612 196.94423728 -6.56745911 198.78353882 C-6.56042465 199.93879059 -6.5533902 201.09404236 -6.54614258 202.28430176 C-6.5419783 203.53943573 -6.53781403 204.7945697 -6.53352356 206.08773804 C-6.51626385 208.05565239 -6.49898031 210.02356685 -6.48032093 211.99146843 C-6.4347836 216.84969953 -6.39705197 221.70782107 -6.38337708 226.56625366 C-6.37521477 229.28788256 -6.35656519 232.00905521 -6.32644653 234.73052979 C-6.29839133 237.29251953 -6.28537287 239.85472978 -6.28930664 242.41687012 C-6.1720094 252.02367077 -6.1720094 252.02367077 -1.70930481 260.26742554 C2.98702049 264.04615596 6.65587209 264.84495269 12.5266571 264.77536011 C13.34017718 264.78160007 14.15369725 264.78784003 14.99186945 264.79426908 C17.70961404 264.81018546 20.42646005 264.79760038 23.14421082 264.78500366 C25.09593223 264.79042539 27.04764955 264.79754833 28.99935913 264.8062439 C34.29479449 264.82447411 39.58991802 264.81741087 44.88535881 264.80472755 C50.42790948 264.79459839 55.97043351 264.80399301 61.51298523 264.81027222 C70.82061048 264.81754885 80.12810875 264.80796045 89.43571472 264.78890991 C100.19558529 264.7671412 110.95515267 264.77419256 121.71501589 264.79621553 C130.95424637 264.81436903 140.1933856 264.81692808 149.43262815 264.80646086 C154.95037525 264.80022568 160.46797984 264.79939106 165.98571777 264.81260681 C171.17326355 264.82416387 176.36041856 264.81614198 181.54792213 264.79302979 C183.45144311 264.78774196 185.35499699 264.78925773 187.25850487 264.79808044 C189.85769122 264.80901665 192.45562657 264.7952961 195.05473328 264.77536011 C195.80746222 264.78428299 196.56019116 264.79320588 197.33573008 264.80239916 C202.44628776 264.72640116 205.37212824 263.51828465 209.29069519 260.26742554 C213.06530399 254.01979718 213.43854367 248.65990539 213.43113708 241.49491882 C213.43410821 240.5994697 213.43707933 239.70402057 213.44014049 238.78143662 C213.44882671 235.77455957 213.45033568 232.76772235 213.451828 229.76083374 C213.45645626 227.60738541 213.46148093 225.45393789 213.46687317 223.30049133 C213.4799992 217.44493906 213.48644264 211.58939824 213.49088383 205.73383355 C213.49381449 202.07532805 213.4979193 198.41682569 213.502388 194.75832176 C213.51606405 183.31126365 213.52572993 171.8642127 213.52958989 160.41714698 C213.53406974 147.20428353 213.55161386 133.99152357 213.58059049 120.77869159 C213.60221115 110.56538917 213.6122944 100.35211585 213.61363101 90.13879079 C213.61467884 84.03909941 213.62058208 77.93950531 213.63845062 71.83983803 C213.65493763 66.1000199 213.65708364 60.36037209 213.64831161 54.62053871 C213.64754156 52.51669865 213.65187979 50.4128494 213.66176987 48.30903244 C213.67450436 45.43076992 213.66860423 42.55310929 213.65818787 39.67485046 C213.66624427 38.84778589 213.67430068 38.02072132 213.68260121 37.16859418 C213.6318387 31.14627982 213.00210395 24.31364393 208.83876157 19.63620454 C203.87101709 15.41424608 200.40611145 15.11881833 194.1181488 15.12025452 C193.26312735 15.11657783 192.4081059 15.11290114 191.52717471 15.10911304 C188.64528233 15.09804828 185.76342597 15.09422764 182.8815155 15.09042358 C180.82201522 15.08416105 178.76251608 15.07751444 176.70301819 15.07051086 C171.09547851 15.05308176 165.48794737 15.04254393 159.88038731 15.03430533 C156.37904015 15.02915931 152.87769567 15.0230834 149.3763504 15.0167942 C138.42745597 14.99773694 127.4785683 14.98350685 116.52966046 14.97518224 C103.87986813 14.96540636 91.23025063 14.93907982 78.58051991 14.89868134 C68.81061377 14.86854785 59.0407578 14.85371599 49.27080607 14.85040122 C43.43215485 14.84804761 37.59369029 14.83904661 31.75508881 14.81394005 C26.2623205 14.79070276 20.76986232 14.78640868 15.27705765 14.79670143 C13.26064397 14.79719796 11.24421526 14.79084328 9.22784805 14.77714539 C6.47525054 14.75949188 3.72377384 14.76650036 0.97117615 14.77967834 C0.17291829 14.7687091 -0.62533956 14.75773985 -1.44778705 14.74643821 C-6.64849035 14.80656366 -9.57572146 15.84695908 -13.70930481 19.26742554 C-17.81351254 24.4808786 -18.84001922 28.72666336 -18.8228302 35.24130249 C-18.82275467 36.20192093 -18.82267914 37.16253937 -18.82260132 38.15226746 C-18.81744003 39.17640244 -18.81227875 40.20053741 -18.80696106 41.25570679 C-18.80483864 42.84320992 -18.80483864 42.84320992 -18.80267334 44.46278381 C-18.7970864 47.83519342 -18.78453625 51.20753607 -18.77180481 54.57992554 C-18.76678812 56.86963812 -18.76222551 59.15935174 -18.75813293 61.44906616 C-18.74712124 67.05520871 -18.73039607 72.66131234 -18.70930481 78.26742554 C-19.69930481 78.26742554 -20.68930481 78.26742554 -21.70930481 78.26742554 C-23.64680481 76.18539429 -23.64680481 76.18539429 -25.70930481 73.45492554 C-28.29432312 69.96170937 -28.29432312 69.96170937 -31.30514526 66.85998535 C-33.84000756 63.98501303 -33.15549256 59.98197803 -33.14289856 56.32211304 C-33.15076134 54.99544113 -33.15076134 54.99544113 -33.15878296 53.64196777 C-33.16520909 51.76745655 -33.16385852 49.89290503 -33.15534973 48.0184021 C-33.14689736 45.17357694 -33.17549783 42.33079926 -33.20735168 39.48617554 C-33.20896545 37.6606553 -33.20838282 35.83513155 -33.20539856 34.00961304 C-33.21663254 33.16865082 -33.22786652 32.3276886 -33.23944092 31.46124268 C-33.1348067 22.42113813 -29.66776684 15.59867113 -23.56867981 9.05648804 C-16.46228773 2.21882507 -9.78483291 -0.03782223 0 0 Z " fill="#0B4277" transform="translate(69.70930480957031,-0.267425537109375)"/>
<path d="M0 0 C1.72228821 -0.01073296 1.72228821 -0.01073296 3.47937012 -0.02168274 C4.7402092 -0.02437164 6.00104828 -0.02706055 7.3000946 -0.02983093 C8.64054032 -0.03609701 9.9809843 -0.04274394 11.32142639 -0.04974365 C15.72405288 -0.07076776 20.12667965 -0.08114386 24.52934265 -0.09111023 C26.0457276 -0.09515827 27.56211236 -0.09927521 29.07849693 -0.10346031 C36.20226942 -0.12250765 43.32603158 -0.13674014 50.44982463 -0.14507228 C58.67023965 -0.15484615 66.8903855 -0.18117125 75.11070567 -0.22157317 C81.46664829 -0.25173897 87.82251377 -0.26654155 94.17852658 -0.26985329 C97.97381771 -0.2722031 101.76882114 -0.28115418 105.56403542 -0.30631447 C109.1354297 -0.32960892 112.70634711 -0.33382328 116.2777977 -0.32355309 C118.20896234 -0.32282234 120.14010284 -0.34190358 122.07116699 -0.36161804 C132.73315793 -0.29761008 132.73315793 -0.29761008 137.4785614 4.14717102 C140.4010511 8.53090556 141.0380854 11.92494701 140.4785614 17.14717102 C138.91377124 21.84154149 136.92279861 23.93983517 132.59355164 26.30659485 C128.68635236 27.85946188 124.70039241 27.82758525 120.5410614 27.89717102 C119.6664325 27.92681946 118.79180359 27.9564679 117.89067078 27.98701477 C115.75378263 28.05707668 113.61617117 28.10446153 111.4785614 28.14717102 C111.97485046 29.04306946 112.47113953 29.9389679 112.98246765 30.86201477 C115.01903467 35.33395436 114.75350093 38.47813574 113.4785614 43.14717102 C111.27124066 46.72455291 109.32727467 48.56274753 105.4785614 50.14717102 C103.25398445 50.40443993 103.25398445 50.40443993 100.78596497 50.41459656 C99.37714554 50.42739151 99.37714554 50.42739151 97.93986511 50.44044495 C96.4046521 50.43908539 96.4046521 50.43908539 94.83842468 50.43769836 C93.2134053 50.4477742 93.2134053 50.4477742 91.55555725 50.45805359 C87.96994963 50.47707034 84.38452883 50.48095964 80.7988739 50.48310852 C78.30789614 50.48953376 75.81691915 50.49626191 73.32594299 50.50328064 C68.10222117 50.51526253 62.87856553 50.51896051 57.65483093 50.51777649 C52.29077803 50.51670806 46.927013 50.5307958 41.56303406 50.55879211 C35.08744945 50.59210962 28.61212368 50.60588854 22.13645554 50.60455704 C19.66849683 50.6069179 17.20053551 50.61576862 14.73262405 50.63122177 C11.28060938 50.65081319 7.82951664 50.64506983 4.37748718 50.63301086 C3.3580603 50.64424988 2.33863342 50.65548889 1.28831482 50.66706848 C-4.62031946 50.61460803 -8.04869424 50.13018537 -12.5214386 46.14717102 C-15.1880344 41.67417162 -16.03903942 38.13673106 -15.18159485 33.08076477 C-14.03701178 29.72828774 -11.97485856 27.66349918 -9.5214386 25.14717102 C-10.3258136 24.32217102 -11.1301886 23.49717102 -11.9589386 22.64717102 C-15.11083378 18.83975348 -15.5214386 16.07608052 -15.5214386 11.14717102 C-13.98101295 6.93126923 -11.94859757 4.0388364 -8.5214386 1.14717102 C-5.4159285 0.11200099 -3.25689914 0.0139221 0 0 Z " fill="#F5CA13" transform="translate(118.52143859863281,99.85282897949219)"/>
<path d="M0 0 C3.86860941 2.32188434 6.91401392 5.19302487 10.0390625 8.421875 C10.60214111 8.99405762 11.16521973 9.56624023 11.74536133 10.15576172 C15.92580574 14.45963389 19.7604492 18.97730338 23.48828125 23.6796875 C25.78382635 26.50687591 28.19554295 29.18230157 30.6640625 31.859375 C34.72389895 36.27577644 38.55730071 40.82101022 42.32421875 45.48828125 C44.85140124 48.58924807 47.44040254 51.63095805 50.0390625 54.671875 C54.91658554 60.40008887 59.61315785 66.25530546 64.21484375 72.20703125 C65.64487638 74.04759956 67.09256881 75.87515347 68.58203125 77.66796875 C72.00572451 81.86938987 73.69677788 85.70072642 75.0234375 90.96484375 C76.31839434 95.80513973 77.32516173 98.63206594 81.6640625 101.359375 C82.45941406 101.86082031 83.25476563 102.36226563 84.07421875 102.87890625 C87.49777424 104.83596135 91.00974528 106.54966247 94.59765625 108.18359375 C96.6640625 109.359375 96.6640625 109.359375 98.6640625 112.359375 C99.19482422 114.80102539 99.19482422 114.80102539 99.59375 117.70703125 C99.7474707 118.77904785 99.90119141 119.85106445 100.05957031 120.95556641 C100.21780273 122.09944824 100.37603516 123.24333008 100.5390625 124.421875 C101.81305396 133.24359597 103.25007508 141.93175481 105.44482422 150.57446289 C106.61149192 155.33923716 106.97820909 159.49010292 106.6640625 164.359375 C106.0040625 165.019375 105.3440625 165.679375 104.6640625 166.359375 C99.60525534 166.06096651 95.84462752 164.73810478 91.3828125 162.41015625 C90.21733887 161.81187012 89.05186523 161.21358398 87.85107422 160.59716797 C87.24777283 160.28213318 86.64447144 159.96709839 86.02288818 159.64251709 C82.90632207 158.01510777 79.7753438 156.41633146 76.640625 154.82421875 C76.03163361 154.51474304 75.42264221 154.20526733 74.79519653 153.88641357 C69.05595859 150.99946746 63.22386785 148.65824566 57.15625 146.5703125 C54.6640625 145.359375 54.6640625 145.359375 53.38671875 143.60546875 C52.477211 140.77862033 51.83133674 137.95457486 51.2265625 135.046875 C50.71327642 132.81595842 50.19306635 130.58661686 49.6640625 128.359375 C49.48488281 127.60011719 49.30570312 126.84085938 49.12109375 126.05859375 C48.53951126 123.95669102 48.53951126 123.95669102 46.6640625 121.359375 C44.53365593 120.42704983 42.42150205 119.84502206 40.17260742 119.25878906 C32.60782198 116.54650979 27.71188463 109.19391999 23.4765625 102.734375 C22.65091797 101.49820435 22.65091797 101.49820435 21.80859375 100.23706055 C20.07535594 97.62267812 18.36570727 94.99441553 16.6640625 92.359375 C15.84881104 91.10036377 15.84881104 91.10036377 15.01708984 89.81591797 C2.811812 70.83768425 -8.27567278 51.0399301 -17.3359375 30.359375 C-17.78839844 29.33714844 -18.24085937 28.31492187 -18.70703125 27.26171875 C-21.2536629 20.99647619 -22.41278878 15.11123252 -21.3359375 8.359375 C-17.03551179 -0.24147643 -9.17105306 -4.51035396 0 0 Z M-8.3359375 11.359375 C-7.951542 17.6840113 -6.71845016 22.76543081 -4.0234375 28.484375 C-3.67152344 29.24878906 -3.31960937 30.01320313 -2.95703125 30.80078125 C4.16532705 46.04555501 12.10903473 60.77503029 20.9140625 75.109375 C21.56310547 76.16769531 22.21214844 77.22601563 22.88085938 78.31640625 C27.18248881 85.22521617 31.79015429 91.84257638 36.6640625 98.359375 C43.17773485 93.57375576 49.43647229 88.51087425 55.6640625 83.359375 C54.01220444 79.44211161 51.35981965 76.46849494 48.6015625 73.296875 C47.59950381 72.12955532 46.59821221 70.96157674 45.59765625 69.79296875 C45.09991699 69.21272949 44.60217773 68.63249023 44.08935547 68.03466797 C42.07880564 65.6714626 40.11991607 63.26793971 38.1640625 60.859375 C33.55367889 55.2008047 28.85087172 49.62504657 24.11865234 44.06835938 C23.13866948 42.91698642 22.15985105 41.76462146 21.18212891 40.61132812 C14.18714716 32.36048619 7.0881693 24.22916277 -0.3359375 16.359375 C-1.63724609 14.95365234 -1.63724609 14.95365234 -2.96484375 13.51953125 C-5.1709579 11.02264479 -5.1709579 11.02264479 -8.3359375 11.359375 Z M56.5390625 95.484375 C55.55035156 96.30035156 54.56164062 97.11632812 53.54296875 97.95703125 C50.2226968 100.72767881 46.93195045 103.52720544 43.6640625 106.359375 C44.3240625 107.019375 44.9840625 107.679375 45.6640625 108.359375 C50.40662904 108.18495486 53.47166715 105.58907222 56.9765625 102.671875 C57.80124023 102.03862305 57.80124023 102.03862305 58.64257812 101.39257812 C61.55895022 98.99064682 62.61214193 97.84605905 63.01953125 94.02734375 C62.90222656 93.14691406 62.78492187 92.26648438 62.6640625 91.359375 C60.48353461 91.359375 58.08305855 94.20963167 56.5390625 95.484375 Z M68.6640625 105.359375 C62.7240625 110.309375 62.7240625 110.309375 56.6640625 115.359375 C57.44266231 119.25237405 58.37269636 122.637202 59.6640625 126.359375 C61.62428282 132.00942181 61.62428282 132.00942181 61.9519043 134.89160156 C62.42634693 137.48086104 62.42634693 137.48086104 64.55004883 138.73730469 C65.35724365 139.08180664 66.16443848 139.42630859 66.99609375 139.78125 C67.87716797 140.16667969 68.75824219 140.55210937 69.66601562 140.94921875 C71.05723633 141.52349609 71.05723633 141.52349609 72.4765625 142.109375 C73.39244141 142.50769531 74.30832031 142.90601563 75.25195312 143.31640625 C79.02368332 144.93717888 82.6490948 146.459875 86.6640625 147.359375 C86.25414063 146.74449219 85.84421875 146.12960938 85.421875 145.49609375 C83.16927083 142.1171875 80.91666667 138.73828125 78.6640625 135.359375 C75.60977177 134.14652624 75.60977177 134.14652624 72.6640625 133.359375 C71.4140625 126.734375 71.4140625 126.734375 73.6640625 123.359375 C76.70825715 122.97075441 78.74450165 122.8010702 81.4140625 124.421875 C82.83454919 126.62362937 83.24284735 128.72199553 83.859375 131.2421875 C85.57189257 135.74793761 88.78507839 139.53355922 91.6640625 143.359375 C94.16205953 135.27180047 91.85430922 124.0094108 88.6640625 116.359375 C84.98204913 112.11888831 79.86733701 111.01074831 74.6640625 109.359375 C72.6840625 108.039375 70.7040625 106.719375 68.6640625 105.359375 Z " fill="#124678" transform="translate(21.3359375,61.640625)"/>
<path d="M0 0 C1.10894119 -0.01272446 2.21788239 -0.02544891 3.36042786 -0.03855896 C4.57248901 -0.03203308 5.78455017 -0.0255072 7.03334045 -0.01878357 C8.95337639 -0.03170692 8.95337639 -0.03170692 10.91220093 -0.04489136 C14.42058777 -0.06739337 17.92852368 -0.0644439 21.43695521 -0.05556989 C24.36691778 -0.05045937 27.29679564 -0.0577531 30.22674948 -0.06504196 C37.13956866 -0.08204376 44.05216711 -0.07847273 50.96498108 -0.06175232 C58.09405872 -0.04483165 65.22252403 -0.06066351 72.35153478 -0.0929752 C78.47483121 -0.11967603 84.59793709 -0.12694581 90.72128588 -0.11846012 C94.37737749 -0.11353208 98.03310071 -0.11573914 101.68914604 -0.13624763 C105.76650557 -0.15802448 109.84270518 -0.13920097 113.9200592 -0.11643982 C115.13009613 -0.12813202 116.34013306 -0.13982422 117.58683777 -0.15187073 C126.69073822 -0.04825097 126.69073822 -0.04825097 129.82241821 2.89004517 C131.54139709 5.5146637 131.54139709 5.5146637 131.66639709 8.1396637 C130.1774589 11.28297766 128.63216417 11.98118325 125.54139709 13.5146637 C122.9254837 13.88939381 122.9254837 13.88939381 120.07643127 13.8888855 C118.44882118 13.89940697 118.44882118 13.89940697 116.78833008 13.91014099 C115.60791641 13.90249725 114.42750275 13.89485352 113.21131897 13.88697815 C111.33495506 13.89245415 111.33495506 13.89245415 109.42068481 13.89804077 C105.99700124 13.90475179 102.57386236 13.89804145 99.15023232 13.88470864 C95.5637827 13.87337374 91.97734679 13.87750323 88.3908844 13.87945557 C82.36857937 13.8803379 76.34638704 13.86927093 70.32411194 13.85084534 C63.36617258 13.82967861 56.40839829 13.8261682 49.45043325 13.8324073 C42.75112324 13.83810642 36.05187123 13.83244883 29.35256958 13.82123375 C26.50420049 13.81659503 23.65586695 13.81571076 20.80749512 13.8178196 C16.82875953 13.82005682 12.85018025 13.80557799 8.87147522 13.7893219 C7.69106155 13.79179932 6.51064789 13.79427673 5.29446411 13.79682922 C4.20939072 13.78974442 3.12431732 13.78265961 2.00636292 13.77536011 C1.06617561 13.77330724 0.12598831 13.77125437 -0.84268951 13.76913929 C-3.69206109 13.49195293 -5.86426351 12.697031 -8.45860291 11.5146637 C-9.20860291 8.2646637 -9.20860291 8.2646637 -9.45860291 4.5146637 C-6.64402079 0.74260293 -4.62207559 0.01346903 0 0 Z " fill="#164A7C" transform="translate(120.45860290527344,52.48533630371094)"/>
<path d="M0 0 C1.12728516 -0.00701431 2.25457031 -0.01402863 3.41601562 -0.02125549 C4.65351562 -0.01361176 5.89101562 -0.00596802 7.16601562 0.00190735 C8.46861328 -0.00174332 9.77121094 -0.00539398 11.11328125 -0.00915527 C14.68766952 -0.01856911 18.2617842 -0.0091349 21.83615112 0.00417686 C25.57436164 0.01548402 29.31255855 0.01138442 33.05078125 0.00942993 C39.32882157 0.00854672 45.60675397 0.01963293 51.88476562 0.03804016 C59.14603297 0.05920824 66.40714219 0.06271784 73.66843414 0.0564782 C80.64966421 0.05078605 87.63083852 0.05642844 94.61206055 0.06765175 C97.58489003 0.07229971 100.55768544 0.07317074 103.53051758 0.0710659 C107.67993475 0.06883477 111.82912985 0.08328288 115.97851562 0.0995636 C117.21601563 0.09708618 118.45351562 0.09460876 119.72851562 0.09205627 C120.85580078 0.09914108 121.98308594 0.10622589 123.14453125 0.11352539 C124.12603149 0.11557826 125.10753174 0.11763113 126.11877441 0.11974621 C128.57226562 0.3742218 128.57226562 0.3742218 131.57226562 2.3742218 C131.96352331 5.43907363 132.22149949 7.45997035 130.38806152 10.04181862 C127.89490961 11.87125526 126.22328813 11.75162478 123.14453125 11.75517273 C121.45360352 11.76786194 121.45360352 11.76786194 119.72851562 11.7808075 C117.87226563 11.77169846 117.87226563 11.77169846 115.97851562 11.7624054 C114.02461914 11.77029083 114.02461914 11.77029083 112.03125 11.77833557 C108.4568751 11.79202531 104.88275963 11.78670384 101.30838013 11.77719831 C97.5701629 11.76961023 93.83196809 11.77664495 90.09375 11.78135681 C83.81571458 11.78681686 77.53778498 11.77961626 71.25976562 11.76533508 C63.99845651 11.74900802 56.73740009 11.75429636 49.47609711 11.7708143 C43.24502141 11.78442212 37.01402185 11.7863523 30.7829361 11.77849829 C27.05991981 11.77381787 23.33702235 11.77320697 19.61401367 11.78310776 C15.4645284 11.79337161 11.31547971 11.77915159 7.16601562 11.7624054 C5.92851563 11.76847809 4.69101563 11.77455078 3.41601562 11.7808075 C2.28873047 11.77234802 1.16144531 11.76388855 0 11.75517273 C-1.47225037 11.75347611 -1.47225037 11.75347611 -2.97424316 11.75174522 C-5.42773438 11.3742218 -5.42773438 11.3742218 -7.24353027 10.00666237 C-8.93641388 7.67300057 -8.84978378 6.18788449 -8.42773438 3.3742218 C-6.01776341 0.05118997 -3.97064217 -0.0006786 0 0 Z " fill="#093F77" transform="translate(119.427734375,107.62577819824219)"/>
<path d="M0 0 C1.42501328 -0.01029488 1.42501328 -0.01029488 2.8788147 -0.02079773 C6.01962216 -0.03910187 9.15993189 -0.03522337 12.30078125 -0.02954102 C14.48266768 -0.03410074 16.66455266 -0.03940568 18.84643555 -0.04542542 C23.41949295 -0.05436339 27.99237577 -0.05192512 32.56542969 -0.04199219 C38.43023477 -0.03049576 44.29443838 -0.05072122 50.15916443 -0.07990932 C54.66471188 -0.09824009 59.17011433 -0.09798519 63.6756897 -0.0922718 C65.8382756 -0.09211824 68.00087111 -0.09819151 70.16342163 -0.11056328 C73.18485459 -0.12541398 76.20516507 -0.11483984 79.2265625 -0.09765625 C80.12226959 -0.10732422 81.01797668 -0.11699219 81.94082642 -0.12695312 C87.96447502 -0.0550897 87.96447502 -0.0550897 91.20776367 2.24009705 C92.61328125 4.40405273 92.61328125 4.40405273 92.48828125 7.52905273 C91.61328125 10.40405273 91.61328125 10.40405273 89.61328125 12.40405273 C87.81382847 12.65852833 87.81382847 12.65852833 85.59657288 12.66474915 C84.33682899 12.67537636 84.33682899 12.67537636 83.05163574 12.68621826 C82.12846558 12.68374084 81.20529541 12.68126343 80.25415039 12.67871094 C79.28332016 12.68382187 78.31248993 12.6889328 77.3122406 12.69419861 C74.09091085 12.70814183 70.86979391 12.70713428 67.6484375 12.70483398 C65.41645731 12.70871833 63.18447787 12.71305246 60.95249939 12.71781921 C56.26917121 12.72529163 51.58591839 12.72498277 46.90258789 12.71972656 C40.89200356 12.71393083 34.88172726 12.73086069 28.87119389 12.75407124 C24.26018969 12.76878164 19.64926012 12.76968394 15.03823662 12.76656151 C12.82179593 12.76707608 10.60535121 12.77233922 8.38893318 12.78237343 C5.29301898 12.7946682 2.19771067 12.78798791 -0.89819336 12.77636719 C-2.27991226 12.78783279 -2.27991226 12.78783279 -3.68954468 12.79953003 C-4.53219376 12.79251572 -5.37484283 12.7855014 -6.24302673 12.77827454 C-6.9750981 12.77844228 -7.70716948 12.77861002 -8.46142483 12.77878284 C-10.96852783 12.29081217 -11.85300501 11.41630799 -13.38671875 9.40405273 C-13.82421875 6.40405273 -13.82421875 6.40405273 -13.38671875 3.40405273 C-9.80970298 -0.72310122 -5.03575783 -0.02530873 0 0 Z " fill="#0E4477" transform="translate(159.38671875,180.595947265625)"/>
<path d="M0 0 C0.8075473 -0.00845947 1.6150946 -0.01691895 2.44711304 -0.02563477 C3.32928497 -0.01956207 4.21145691 -0.01348938 5.12036133 -0.00723267 C6.51830429 -0.0151181 6.51830429 -0.0151181 7.94448853 -0.02316284 C11.03062613 -0.03638602 14.11624956 -0.02761646 17.20239258 -0.01748657 C19.34326273 -0.01950664 21.48413221 -0.02241751 23.625 -0.02618408 C28.11408025 -0.03061058 32.60298155 -0.02416581 37.09204102 -0.01016235 C42.85263818 0.0069296 48.61281606 -0.00290983 54.37339783 -0.02087975 C58.79483207 -0.03170871 63.21616655 -0.0282753 67.63760376 -0.02049637 C69.76193287 -0.01849191 71.88627098 -0.02096221 74.0105896 -0.02793503 C76.97711256 -0.03553482 79.94295192 -0.02396577 82.90942383 -0.00723267 C84.23268173 -0.01634171 84.23268173 -0.01634171 85.58267212 -0.02563477 C86.79399307 -0.01294556 86.79399307 -0.01294556 88.02978516 0 C88.73106033 0.00113108 89.43233551 0.00226215 90.15486145 0.00342751 C92.59702473 0.49910407 93.47445065 1.4595145 95.01489258 3.38095093 C96.05117386 6.2677345 96.32055075 7.67164807 95.09753418 10.50975037 C91.74257277 13.52409795 88.17549735 12.92991811 83.81762695 12.88265991 C82.40505363 12.89076439 82.40505363 12.89076439 80.96394348 12.89903259 C77.845192 12.91155929 74.72735656 12.89500244 71.60864258 12.87704468 C69.4453527 12.87719957 67.28206253 12.87868699 65.11877441 12.88145447 C60.58255767 12.88284023 56.04665643 12.87025055 51.51049805 12.84750366 C45.68934973 12.81911873 39.86872588 12.8218541 34.04753876 12.83459377 C29.57976789 12.84154131 25.11211873 12.83377222 20.6443634 12.82133675 C18.49771084 12.81681325 16.35104525 12.81649325 14.20439148 12.82040215 C11.20670693 12.82330527 8.20975083 12.80685021 5.2121582 12.78500366 C4.32063553 12.78950531 3.42911285 12.79400696 2.51057434 12.79864502 C1.69461288 12.78874039 0.87865143 12.77883575 0.03796387 12.76863098 C-0.67068565 12.76620109 -1.37933517 12.76377119 -2.10945892 12.76126766 C-4.5772033 12.26089433 -5.47002656 11.36208093 -6.98510742 9.38095093 C-7.62988724 4.22271238 -7.62988724 4.22271238 -5.71073914 1.71726036 C-3.62195427 0.09972928 -2.61677409 0.00422056 0 0 Z " fill="#0F4579" transform="translate(117.985107421875,76.61904907226563)"/>
<path d="M0 0 C0.92404129 -0.00426498 1.84808258 -0.00852997 2.80012512 -0.01292419 C3.82196899 -0.01247101 4.84381287 -0.01201782 5.8966217 -0.0115509 C6.96644791 -0.01490952 8.03627411 -0.01826813 9.13851929 -0.02172852 C12.69469852 -0.03127095 16.25083084 -0.03318326 19.80702209 -0.03425598 C22.26702901 -0.0374662 24.72703573 -0.04083009 27.18704224 -0.04434204 C32.35130761 -0.05034152 37.51555622 -0.0521811 42.67982483 -0.05158997 C49.31261752 -0.05148828 55.94530331 -0.06514343 62.57807064 -0.08236217 C67.6608327 -0.09345474 72.7435687 -0.09551002 77.82634163 -0.09498024 C80.2724755 -0.0961644 82.71860995 -0.10061035 85.16473198 -0.10831261 C88.57934534 -0.11805753 91.99372369 -0.11525629 95.40834045 -0.10920715 C96.4281601 -0.11482666 97.44797974 -0.12044617 98.498703 -0.12623596 C99.42556412 -0.12204147 100.35242523 -0.11784698 101.30737305 -0.11352539 C102.51942618 -0.11434254 102.51942618 -0.11434254 103.75596523 -0.1151762 C105.71717834 0.13371277 105.71717834 0.13371277 107.71717834 2.13371277 C107.46717834 5.69621277 107.46717834 5.69621277 106.71717834 9.13371277 C104.3788718 10.30286604 103.00231872 10.26435225 100.39675903 10.27415466 C99.48961655 10.27986481 98.58247406 10.28557495 97.64784241 10.29145813 C96.1508783 10.29313492 96.1508783 10.29313492 94.62367249 10.29484558 C93.57481369 10.29981049 92.5259549 10.30477539 91.4453125 10.30989075 C87.96431328 10.32453535 84.4833596 10.33131764 81.00233459 10.33683777 C78.59099322 10.34258661 76.17965188 10.34834437 73.76831055 10.35411072 C68.70837693 10.36462676 63.64845924 10.37046572 58.58851624 10.37394714 C52.09368674 10.37943805 45.59906625 10.40347645 39.10430241 10.4319191 C34.12272519 10.45050814 29.14119874 10.45574905 24.15958977 10.45728302 C21.76451409 10.46031771 19.36943947 10.4683735 16.97439766 10.4814682 C13.62946101 10.49845315 10.28504056 10.49666701 6.94007874 10.49015808 C5.94412689 10.49937286 4.94817505 10.50858765 3.92204285 10.51808167 C3.01208054 10.51251251 2.10211823 10.50694336 1.1645813 10.50120544 C0.37351518 10.502672 -0.41755095 10.50413857 -1.23258877 10.50564957 C-3.83241043 10.03401078 -4.74778036 9.26160668 -6.28282166 7.13371277 C-5.83060976 1.48106408 -5.60810227 0.01163649 0 0 Z " fill="#033A76" transform="translate(117.28282165527344,131.8662872314453)"/>
<path d="M0 0 C2.88628485 2.88628485 2.27773639 4.97741209 2.31884766 9.02001953 C2.33391609 10.10310394 2.33391609 10.10310394 2.34928894 11.20806885 C2.38023072 13.59964181 2.39718626 15.99110229 2.4140625 18.3828125 C2.43276534 20.03906225 2.45233808 21.69530239 2.4727478 23.35153198 C2.52416855 27.71460309 2.56374086 32.07770512 2.60089111 36.44091797 C2.64086862 40.89168002 2.6919894 45.34231232 2.7421875 49.79296875 C2.83906443 58.52855734 2.92343132 67.26420992 3 76 C-2.69558668 74.10147111 -6.01307691 69.01587806 -9 64 C-10.17672576 59.18713335 -10.12849872 54.62171922 -9.984375 49.6875 C-9.97517601 48.34279292 -9.96956761 46.99805702 -9.96734619 45.65332031 C-9.95365172 42.85872003 -9.910825 40.06677014 -9.84375 37.27294922 C-9.7582422 33.69382223 -9.72604009 30.11674933 -9.7127037 26.53669739 C-9.69725753 23.10753542 -9.65367665 19.67888744 -9.609375 16.25 C-9.59662537 14.96569092 -9.58387573 13.68138184 -9.57073975 12.3581543 C-9.54191711 11.17261963 -9.51309448 9.98708496 -9.48339844 8.765625 C-9.46291443 7.72180664 -9.44243042 6.67798828 -9.42132568 5.60253906 C-9 3 -9 3 -7.66119385 1.15917969 C-5.10553544 -0.62415662 -3.02232157 -0.32152357 0 0 Z " fill="#0D4376" transform="translate(70,28)"/>
<path d="M0 0 C0.98782471 -0.01268417 1.97564941 -0.02536835 2.9934082 -0.03843689 C4.58415161 -0.03403343 4.58415161 -0.03403343 6.20703125 -0.02954102 C7.84901489 -0.03740379 7.84901489 -0.03740379 9.52416992 -0.04542542 C11.83739372 -0.05184577 14.15065016 -0.05050848 16.46386719 -0.04199219 C20.00644915 -0.0334787 23.54742095 -0.06225112 27.08984375 -0.09399414 C29.3372391 -0.09560612 31.58463731 -0.09502869 33.83203125 -0.09204102 C34.89252686 -0.10327499 35.95302246 -0.11450897 37.0456543 -0.12608337 C44.33990915 -0.05681294 44.33990915 -0.05681294 47.7265625 2.23974609 C49.01953125 4.40405273 49.01953125 4.40405273 48.89453125 7.52905273 C48.01953125 10.40405273 48.01953125 10.40405273 46.01953125 12.40405273 C43.8250885 12.66474915 43.8250885 12.66474915 41.06665039 12.67871094 C40.03540543 12.68824295 39.00416046 12.69777496 37.94166565 12.70759583 C36.26511147 12.70622871 36.26511147 12.70622871 34.5546875 12.70483398 C32.83831337 12.71126167 32.83831337 12.71126167 31.08726501 12.71781921 C28.66373355 12.72357057 26.24018481 12.72405688 23.81665039 12.71972656 C20.10077558 12.71656866 16.38569803 12.74000963 12.66992188 12.76538086 C10.31901143 12.7676539 7.96809883 12.76835733 5.6171875 12.76733398 C3.94366966 12.78114861 3.94366966 12.78114861 2.23634338 12.79524231 C1.20194626 12.78901352 0.16754913 12.78278473 -0.89819336 12.77636719 C-1.80927353 12.77699661 -2.7203537 12.77762604 -3.65904236 12.77827454 C-6.44760808 12.32874829 -7.33413986 11.66896719 -8.98046875 9.40405273 C-9.41796875 6.40405273 -9.41796875 6.40405273 -8.98046875 3.40405273 C-6.07625376 0.59091726 -3.98394035 0.02481867 0 0 Z " fill="#0C4277" transform="translate(143.98046875,215.595947265625)"/>
<path d="M0 0 C0.83123383 0.00404846 1.66246765 0.00809692 2.51889038 0.01226807 C3.3937912 0.00876343 4.26869202 0.00525879 5.17010498 0.00164795 C8.07160296 -0.00717824 10.97285852 -0.00131709 13.87435913 0.00543213 C15.88453214 0.00408573 17.89470482 0.00214542 19.90487671 -0.00036621 C24.12162368 -0.00331868 28.33828604 0.00098411 32.55502319 0.01031494 C37.96928137 0.02170952 43.38334127 0.01515071 48.79759216 0.00317001 C52.94961042 -0.00404527 57.10158142 -0.00176218 61.25360107 0.0034256 C63.25036645 0.00476301 65.24713607 0.00311119 67.24389648 -0.00153351 C70.03098983 -0.0065933 72.81775879 0.00110375 75.60482788 0.01226807 C76.43606171 0.0082196 77.26729553 0.00417114 78.12371826 0 C83.83333114 0.04252914 83.83333114 0.04252914 86.06185913 2.27105713 C85.73185913 3.92105713 85.40185913 5.57105713 85.06185913 7.27105713 C54.70185913 7.27105713 24.34185913 7.27105713 -6.93814087 7.27105713 C-7.26814087 5.62105713 -7.59814087 3.97105713 -7.93814087 2.27105713 C-5.33864418 -0.32843956 -3.54130862 0.02637811 0 0 Z " fill="#154676" transform="translate(153.93814086914063,163.72894287109375)"/>
<path d="M0 0 C-0.66 1.65 -1.32 3.3 -2 5 C-0.68 5.99 0.64 6.98 2 8 C1.67 9.65 1.34 11.3 1 13 C-0.66611905 13.042721 -2.33382885 13.04063832 -4 13 C-4.33 12.67 -4.66 12.34 -5 12 C-5.66 13.65 -6.32 15.3 -7 17 C-10.79253782 15.52604425 -12.28316326 13.56377551 -14.375 10.125 C-14.91898438 9.26132813 -15.46296875 8.39765625 -16.0234375 7.5078125 C-17 5 -17 5 -16.5 2.76171875 C-14.41411975 0.31189585 -12.77214541 0.17264976 -9.625 -0.3125 C-8.66851562 -0.47363281 -7.71203125 -0.63476562 -6.7265625 -0.80078125 C-4.16039845 -0.98828034 -2.4222866 -0.79786217 0 0 Z " fill="#19497A" transform="translate(253,133)"/>
<path d="M0 0 C0.99443115 -0.00953201 1.9888623 -0.01906403 3.01342773 -0.02888489 C4.62906616 -0.02751778 4.62906616 -0.02751778 6.27734375 -0.02612305 C7.37957275 -0.03040817 8.48180176 -0.0346933 9.61743164 -0.03910828 C11.95100212 -0.04485878 14.28459052 -0.04534656 16.61816406 -0.04101562 C20.20017873 -0.03785474 23.78136874 -0.06130994 27.36328125 -0.08666992 C29.62630104 -0.08894263 31.88932305 -0.08964654 34.15234375 -0.08862305 C35.76798218 -0.10243767 35.76798218 -0.10243767 37.41625977 -0.11653137 C38.90790649 -0.10718819 38.90790649 -0.10718819 40.4296875 -0.09765625 C41.3074585 -0.09828568 42.18522949 -0.0989151 43.08959961 -0.0995636 C44.14159546 0.08567619 44.14159546 0.08567619 45.21484375 0.2746582 C45.87484375 1.2646582 46.53484375 2.2546582 47.21484375 3.2746582 C29.39484375 2.9446582 11.57484375 2.6146582 -6.78515625 2.2746582 C-4.27809425 -0.23240379 -3.46477092 0.01818647 0 0 Z " fill="#395E85" transform="translate(143.78515625,215.725341796875)"/>
<path d="M0 0 C0.33 0 0.66 0 1 0 C1.33 23.43 1.66 46.86 2 71 C0.68 70.34 -0.64 69.68 -2 69 C-1.67 68.01 -1.34 67.02 -1 66 C-0.88237799 63.86908944 -0.8231306 61.73479475 -0.79467773 59.60083008 C-0.78477814 58.95665634 -0.77487854 58.3124826 -0.76467896 57.64878845 C-0.73312533 55.5224066 -0.70833095 53.39600242 -0.68359375 51.26953125 C-0.66301891 49.79407678 -0.6420223 48.31862814 -0.62062073 46.84318542 C-0.56545474 42.96180949 -0.51602138 39.08038085 -0.46777344 35.19891357 C-0.41751842 31.23737909 -0.36185324 27.27592106 -0.30664062 23.31445312 C-0.19912601 15.54303351 -0.09766623 7.77155028 0 0 Z " fill="#013270" transform="translate(70,31)"/>
<path d="M0 0 C1.25361328 0.00644531 2.50722656 0.01289062 3.79882812 0.01953125 C5.76432617 0.04466797 5.76432617 0.04466797 7.76953125 0.0703125 C9.10481112 0.08034611 10.44009814 0.0894713 11.77539062 0.09765625 C15.0444514 0.12125958 18.31315153 0.15418656 21.58203125 0.1953125 C19.58203125 2.1953125 19.58203125 2.1953125 17.12353516 2.41894531 C16.11210449 2.41217773 15.10067383 2.40541016 14.05859375 2.3984375 C12.95515625 2.41003906 11.85171875 2.42164063 10.71484375 2.43359375 C8.3841145 2.44138015 6.05327988 2.43367151 3.72265625 2.41015625 C-2.06488967 2.22577887 -2.06488967 2.22577887 -7.06347656 4.58007812 C-8.30592236 6.38806009 -8.30592236 6.38806009 -9.41796875 9.1953125 C-9.74796875 9.1953125 -10.07796875 9.1953125 -10.41796875 9.1953125 C-10.10546875 5.8203125 -10.10546875 5.8203125 -9.41796875 2.1953125 C-5.83128562 -0.19580959 -4.25400306 -0.03849777 0 0 Z " fill="#40658A" transform="translate(121.41796875,52.8046875)"/>
<path d="M0 0 C0.33 0 0.66 0 1 0 C1.33 15.84 1.66 31.68 2 48 C1.01 48 0.02 48 -1 48 C-2.75 46.1875 -2.75 46.1875 -4 44 C-3.67 43.01 -3.34 42.02 -3 41 C-2.67 41.99 -2.34 42.98 -2 44 C-1.34 44 -0.68 44 0 44 C0 29.48 0 14.96 0 0 Z " fill="#416489" transform="translate(49,30)"/>
<path d="M0 0 C-3.00930088 2.60568827 -4.95017262 3.39438866 -8.9140625 3.546875 C-9.83960938 3.58683594 -10.76515625 3.62679687 -11.71875 3.66796875 C-12.6778125 3.69503906 -13.636875 3.72210938 -14.625 3.75 C-15.59179688 3.79253906 -16.55859375 3.83507812 -17.5546875 3.87890625 C-24.70306412 4.14846794 -24.70306412 4.14846794 -27 3 C-27 2.34 -27 1.68 -27 1 C-23.62511542 0.83094103 -20.25007637 0.66518231 -16.875 0.5 C-15.44800781 0.42845703 -15.44800781 0.42845703 -13.9921875 0.35546875 C-9.32313191 0.12850077 -4.67636296 -0.06298132 0 0 Z " fill="#F7DC62" transform="translate(253,124)"/>
<path d="M0 0 C2.125 0.375 2.125 0.375 4 1 C4.625 2.875 4.625 2.875 5 5 C4.34 5.66 3.68 6.32 3 7 C0.875 6.625 0.875 6.625 -1 6 C-1.625 4.125 -1.625 4.125 -2 2 C-1.34 1.34 -0.68 0.68 0 0 Z " fill="#355881" transform="translate(253,164)"/>
<path d="M0 0 C2.0625 0.1875 2.0625 0.1875 4 1 C4.33 1.99 4.66 2.98 5 4 C4.01 5.485 4.01 5.485 3 7 C1.68 6.67 0.36 6.34 -1 6 C-1.625 4.125 -1.625 4.125 -2 2 C-1.34 1.34 -0.68 0.68 0 0 Z " fill="#325883" transform="translate(262,151)"/>
<path d="M0 0 C1.17949219 0.01804688 2.35898438 0.03609375 3.57421875 0.0546875 C4.92966797 0.08949219 4.92966797 0.08949219 6.3125 0.125 C6.3125 0.455 6.3125 0.785 6.3125 1.125 C5.57644531 1.11597656 4.84039062 1.10695312 4.08203125 1.09765625 C-1.66370159 1.09696523 -1.66370159 1.09696523 -6.49609375 3.75 C-7.99231264 5.88456555 -7.99231264 5.88456555 -9.6875 9.125 C-10.0175 9.125 -10.3475 9.125 -10.6875 9.125 C-10.375 5.75 -10.375 5.75 -9.6875 2.125 C-6.05554504 -0.29630331 -4.30400652 -0.08522785 0 0 Z " fill="#496A90" transform="translate(121.6875,52.875)"/>
<path d="M0 0 C1.32 0.66 2.64 1.32 4 2 C3.67 3.32 3.34 4.64 3 6 C1.68 6.33 0.36 6.66 -1 7 C-1.66 5.68 -2.32 4.36 -3 3 C-2.01 2.01 -1.02 1.02 0 0 Z " fill="#2D527D" transform="translate(261,159)"/>
<path d="M0 0 C1.67542976 0.28604898 3.34385343 0.61781233 5 1 C5 2.32 5 3.64 5 5 C3.35 5.33 1.7 5.66 0 6 C-0.38218767 4.34385343 -0.71395102 2.67542976 -1 1 C-0.67 0.67 -0.34 0.34 0 0 Z " fill="#34567F" transform="translate(257,144)"/>
<path d="M0 0 C1.67542976 0.28604898 3.34385343 0.61781233 5 1 C4.67 2.65 4.34 4.3 4 6 C2.68 6 1.36 6 0 6 C-0.38218767 4.34385343 -0.71395102 2.67542976 -1 1 C-0.67 0.67 -0.34 0.34 0 0 Z " fill="#31557E" transform="translate(244,165)"/>
<path d="M0 0 C-0.66 1.32 -1.32 2.64 -2 4 C-2.33 3.67 -2.66 3.34 -3 3 C-5.01594582 2.76572222 -7.038474 2.58663876 -9.0625 2.4375 C-10.16722656 2.35371094 -11.27195313 2.26992187 -12.41015625 2.18359375 C-13.26480469 2.12300781 -14.11945313 2.06242188 -15 2 C-15 1.67 -15 1.34 -15 1 C-13.25215171 0.63536268 -11.50159498 0.2836922 -9.75 -0.0625 C-8.28820312 -0.35833984 -8.28820312 -0.35833984 -6.796875 -0.66015625 C-4.131881 -0.98397535 -2.51128277 -0.85503199 0 0 Z " fill="#3D5F84" transform="translate(253,133)"/>
<path d="M0 0 C0.66 0 1.32 0 2 0 C2.33 4.95 2.66 9.9 3 15 C2.67 15 2.34 15 2 15 C-0.10428384 9.87080814 -0.21755666 5.4389165 0 0 Z " fill="#385C85" transform="translate(118,174)"/>
<path d="M0 0 C4.79280002 0.80904103 6.13520113 3.25984591 9 7 C6 7 6 7 4.39453125 5.46875 C3.87246094 4.8190625 3.35039062 4.169375 2.8125 3.5 C2.28269531 2.8503125 1.75289062 2.200625 1.20703125 1.53125 C0.80871094 1.0259375 0.41039063 0.520625 0 0 Z " fill="#31527D" transform="translate(20,77)"/>
<path d="M0 0 C0.66 0.33 1.32 0.66 2 1 C0.02 3.31 -1.96 5.62 -4 8 C-4.99 7.67 -5.98 7.34 -7 7 C-4.69 4.69 -2.38 2.38 0 0 Z " fill="#234673" transform="translate(50,5)"/>
<path d="M0 0 C0.99 0.33 1.98 0.66 3 1 C2.01 2.485 2.01 2.485 1 4 C0.34 4 -0.32 4 -1 4 C-1.33 5.32 -1.66 6.64 -2 8 C-2.125 5.125 -2.125 5.125 -2 2 C-1.34 1.34 -0.68 0.68 0 0 Z " fill="#2B517F" transform="translate(113,78)"/>
</svg>
